<svg width="261" height="83" viewBox="0 0 261 83" fill="none" xmlns="http://www.w3.org/2000/svg">
<path d="M116.04 57.8C116.333 57.8 116.587 57.9067 116.8 58.12C117.013 58.3333 117.12 58.5867 117.12 58.88V64.92C117.12 65.2133 117.013 65.4667 116.8 65.68C116.587 65.8933 116.333 66 116.04 66H92.68C92.3867 66 92.1333 65.8933 91.92 65.68C91.7067 65.4667 91.6 65.2133 91.6 64.92V39.08C91.6 38.7867 91.7067 38.5333 91.92 38.32C92.1333 38.1067 92.3867 38 92.68 38H101.32C101.613 38 101.867 38.1067 102.08 38.32C102.293 38.5333 102.4 38.7867 102.4 39.08V57.8H116.04ZM151.864 54.44C151.864 58.52 150.504 61.5333 147.784 63.48C145.091 65.4267 141.491 66.4 136.984 66.4C132.478 66.4 128.864 65.4267 126.144 63.48C123.451 61.5333 122.104 58.4933 122.104 54.36V49.64C122.104 46.92 122.744 44.6667 124.024 42.88C125.331 41.0667 127.104 39.7333 129.344 38.88C131.584 38.0267 134.131 37.6 136.984 37.6C139.838 37.6 142.371 38.0267 144.584 38.88C146.824 39.7333 148.598 41.0533 149.904 42.84C151.211 44.6267 151.864 46.8667 151.864 49.56V54.44ZM132.904 55.2C132.904 56.2933 133.264 57.1333 133.984 57.72C134.731 58.3067 135.731 58.6 136.984 58.6C138.238 58.6 139.224 58.3067 139.944 57.72C140.691 57.1067 141.064 56.2533 141.064 55.16V48.84C141.064 47.7467 140.691 46.9067 139.944 46.32C139.224 45.7067 138.238 45.4 136.984 45.4C135.731 45.4 134.731 45.6933 133.984 46.28C133.264 46.8667 132.904 47.7067 132.904 48.8V55.2ZM173.169 48.16C176.102 48.48 178.449 49 180.209 49.72C181.995 50.44 183.289 51.3867 184.089 52.56C184.889 53.7333 185.289 55.2 185.289 56.96C185.289 58.88 184.662 60.56 183.409 62C182.182 63.4133 180.475 64.5067 178.289 65.28C176.102 66.0267 173.609 66.4 170.809 66.4C167.689 66.4 165.049 66.0133 162.889 65.24C160.729 64.4667 159.115 63.44 158.049 62.16C156.982 60.8533 156.449 59.4267 156.449 57.88C156.449 57.6133 156.529 57.4 156.689 57.24C156.875 57.08 157.102 57 157.369 57H165.569C166.129 57 166.582 57.1733 166.929 57.52C167.382 57.9467 167.889 58.24 168.449 58.4C169.009 58.5333 169.795 58.6 170.809 58.6C173.342 58.6 174.609 58.2133 174.609 57.44C174.609 57.12 174.435 56.8533 174.089 56.64C173.769 56.4 173.182 56.2 172.329 56.04C171.502 55.8533 170.275 55.6667 168.649 55.48C164.995 55.0533 162.195 54.1467 160.249 52.76C158.302 51.3467 157.329 49.36 157.329 46.8C157.329 44.9867 157.875 43.3867 158.969 42C160.062 40.6133 161.609 39.5333 163.609 38.76C165.635 37.9867 167.982 37.6 170.649 37.6C173.422 37.6 175.849 38.04 177.929 38.92C180.009 39.7733 181.595 40.84 182.689 42.12C183.782 43.4 184.329 44.6533 184.329 45.88C184.329 46.1467 184.235 46.36 184.049 46.52C183.889 46.68 183.662 46.76 183.369 46.76H174.769C174.315 46.76 173.902 46.6 173.529 46.28C173.235 46.0133 172.889 45.8 172.489 45.64C172.089 45.48 171.475 45.4 170.649 45.4C168.862 45.4 167.969 45.7733 167.969 46.52C167.969 46.92 168.315 47.24 169.009 47.48C169.702 47.6933 171.089 47.92 173.169 48.16ZM218.753 38C219.046 38 219.3 38.1067 219.513 38.32C219.726 38.5333 219.833 38.7867 219.833 39.08V45.52C219.833 45.8133 219.726 46.0667 219.513 46.28C219.3 46.4933 219.046 46.6 218.753 46.6H210.153V64.92C210.153 65.2133 210.046 65.4667 209.833 65.68C209.62 65.8933 209.366 66 209.073 66H200.833C200.54 66 200.286 65.8933 200.073 65.68C199.86 65.4667 199.753 65.2133 199.753 64.92V46.6H191.153C190.86 46.6 190.606 46.4933 190.393 46.28C190.18 46.0667 190.073 45.8133 190.073 45.52V39.08C190.073 38.7867 190.18 38.5333 190.393 38.32C190.606 38.1067 190.86 38 191.153 38H218.753Z" fill="#041A29"/>
<path d="M43.4 21.12C43.6933 21.12 43.9467 21.2267 44.16 21.44C44.3733 21.6533 44.48 21.9067 44.48 22.2V26.44C44.48 30.4933 43.0933 33.5067 40.32 35.48C37.5733 37.4267 33.9333 38.4 29.4 38.4C24.8667 38.4 21.2133 37.4267 18.44 35.48C15.6933 33.5067 14.32 30.4667 14.32 26.36V21.64C14.32 18.92 14.9867 16.6667 16.32 14.88C17.6533 13.0667 19.4533 11.7333 21.72 10.88C23.9867 10.0267 26.5467 9.6 29.4 9.6C32.8133 9.6 35.6267 10.16 37.84 11.28C40.0533 12.4 41.6533 13.6667 42.64 15.08C43.6533 16.4933 44.16 17.64 44.16 18.52C44.16 18.76 44.0667 18.9733 43.88 19.16C43.72 19.32 43.52 19.4 43.28 19.4H34.24C33.7067 19.4 33.32 19.2533 33.08 18.96C32.2533 17.92 31.0267 17.4 29.4 17.4C28.1733 17.4 27.1467 17.68 26.32 18.24C25.52 18.8 25.12 19.52 25.12 20.4V27.2C25.12 28.2667 25.52 29.1067 26.32 29.72C27.12 30.3067 28.1467 30.6 29.4 30.6C31.0533 30.6 32.2667 30.32 33.04 29.76C33.84 29.1733 34.2533 28.4933 34.28 27.72H31.8C31.5067 27.72 31.2533 27.6133 31.04 27.4C30.8267 27.1867 30.72 26.9333 30.72 26.64V22.2C30.72 21.9067 30.8267 21.6533 31.04 21.44C31.2533 21.2267 31.5067 21.12 31.8 21.12H43.4ZM75.9444 30.2C76.2377 30.2 76.491 30.3067 76.7044 30.52C76.9177 30.7333 77.0244 30.9867 77.0244 31.28V36.92C77.0244 37.2133 76.9177 37.4667 76.7044 37.68C76.491 37.8933 76.2377 38 75.9444 38H50.6644C50.371 38 50.1177 37.8933 49.9044 37.68C49.691 37.4667 49.5844 37.2133 49.5844 36.92V11.08C49.5844 10.7867 49.691 10.5333 49.9044 10.32C50.1177 10.1067 50.371 10 50.6644 10H75.5444C75.8377 10 76.091 10.1067 76.3044 10.32C76.5177 10.5333 76.6244 10.7867 76.6244 11.08V16.72C76.6244 17.0133 76.5177 17.2667 76.3044 17.48C76.091 17.6933 75.8377 17.8 75.5444 17.8H59.9844V20.32H73.3444C73.6377 20.32 73.891 20.4267 74.1044 20.64C74.3177 20.8533 74.4244 21.1067 74.4244 21.4V26.6C74.4244 26.8933 74.3177 27.1467 74.1044 27.36C73.891 27.5733 73.6377 27.68 73.3444 27.68H59.9844V30.2H75.9444ZM110.769 10C111.062 10 111.315 10.1067 111.529 10.32C111.742 10.5333 111.849 10.7867 111.849 11.08V17.52C111.849 17.8133 111.742 18.0667 111.529 18.28C111.315 18.4933 111.062 18.6 110.769 18.6H102.169V36.92C102.169 37.2133 102.062 37.4667 101.849 37.68C101.635 37.8933 101.382 38 101.089 38H92.8488C92.5554 38 92.3021 37.8933 92.0888 37.68C91.8754 37.4667 91.7688 37.2133 91.7688 36.92V18.6H83.1688C82.8754 18.6 82.6221 18.4933 82.4088 18.28C82.1954 18.0667 82.0888 17.8133 82.0888 17.52V11.08C82.0888 10.7867 82.1954 10.5333 82.4088 10.32C82.6221 10.1067 82.8754 10 83.1688 10H110.769Z" fill="#041A29"/>
<line x1="0.00728147" y1="36.3889" x2="237.48" y2="37.5417" stroke="#041A29" stroke-width="3"/>
</svg>
